<?xml version="1.0" standalone="no"?>
<!DOCTYPE svg PUBLIC "-//W3C//DTD SVG 20010904//EN"
 "http://www.w3.org/TR/2001/REC-SVG-20010904/DTD/svg10.dtd">
<svg version="1.0" xmlns="http://www.w3.org/2000/svg"
 width="500.000000pt" height="500.000000pt" viewBox="0 0 500.000000 500.000000"
 preserveAspectRatio="xMidYMid meet">
<metadata>
Created by potrace 1.14, written by Peter Selinger 2001-2017
</metadata>
<g transform="translate(0.000000,500.000000) scale(0.100000,-0.100000)"
fill="#000000" stroke="none">
<path d="M1782 4150 c-62 -4 -77 -9 -93 -29 -29 -35 -25 -87 10 -121 l29 -29
827 2 827 2 24 28 c33 38 32 86 -2 121 l-27 26 -256 1 c-141 0 -483 1 -761 2
-278 1 -538 0 -578 -3z m1576 -54 c27 -9 30 -51 5 -64 -11 -6 -353 -10 -820
-9 -660 0 -805 2 -814 13 -15 18 -3 62 18 66 36 7 1589 2 1611 -6z"/>
<path d="M1738 3952 c-9 -2 -23 -18 -31 -35 -37 -78 -77 -168 -77 -172 0 -2
-13 -32 -29 -67 -146 -311 -152 -338 -98 -410 84 -111 228 -114 387 -7 31 20
61 43 67 50 12 16 30 71 36 114 3 17 16 80 30 140 14 61 28 121 30 135 3 14
12 52 20 85 26 98 32 165 16 166 -36 3 -336 4 -351 1z"/>
<path d="M2131 3950 c-5 -3 -11 -21 -15 -40 -11 -62 -14 -75 -29 -141 -20 -81
-55 -236 -61 -269 -2 -14 -12 -59 -21 -100 l-16 -75 48 -43 c74 -65 126 -93
188 -99 73 -7 176 25 230 71 22 19 51 43 64 53 l23 19 0 308 c-1 170 -4 311
-7 314 -7 8 -393 10 -404 2z"/>
<path d="M2568 3949 c-7 -5 -11 -87 -10 -256 1 -136 2 -275 2 -309 l0 -61 63
-51 c91 -73 140 -92 231 -88 85 4 128 24 209 100 33 31 47 51 43 63 -4 15 -48
218 -60 279 -24 119 -71 311 -78 319 -10 11 -383 14 -400 4z"/>
<path d="M3005 3947 c-8 -4 -12 -15 -10 -25 2 -9 20 -89 40 -177 20 -88 39
-171 41 -185 3 -14 7 -32 9 -40 2 -8 7 -30 10 -49 3 -19 8 -37 10 -41 2 -4 7
-21 10 -38 10 -59 24 -81 77 -121 86 -65 141 -85 230 -85 70 -1 81 2 120 30
50 35 88 95 88 140 0 17 -19 71 -41 120 -23 49 -65 143 -94 209 -88 205 -118
265 -129 266 -49 6 -350 3 -361 -4z"/>
<path d="M1960 3286 c-14 -8 -49 -30 -77 -49 -64 -43 -130 -66 -204 -71 -31
-2 -61 -6 -67 -9 -6 -4 -10 -154 -10 -419 0 -227 -1 -432 -1 -455 l-1 -41 -44
0 c-59 0 -86 -19 -86 -59 0 -22 6 -36 21 -43 21 -12 333 -15 350 -4 5 3 9 210
9 460 l0 454 305 0 305 0 0 -454 c0 -314 3 -457 11 -461 16 -10 149 -9 160 2
4 4 10 62 11 128 l3 120 303 3 302 2 0 -124 c0 -69 4 -127 9 -130 17 -11 329
-8 350 4 14 7 21 21 21 40 0 37 -33 60 -90 63 l-42 2 0 453 c0 323 -3 454 -11
459 -7 4 -30 8 -52 8 -95 4 -159 27 -240 86 -76 55 -83 55 -140 4 -91 -82
-185 -107 -294 -79 -54 14 -87 33 -154 90 -48 40 -75 37 -130 -13 -64 -57
-139 -87 -222 -86 -87 1 -142 24 -210 87 -27 25 -52 46 -55 46 -3 -1 -16 -7
-30 -14z m658 -94 c129 -101 331 -100 442 0 58 53 53 53 118 8 68 -46 152 -78
220 -83 l47 -3 2 -448 c1 -246 4 -454 7 -462 4 -10 23 -14 66 -14 34 0 59 -3
56 -8 -2 -4 -64 -7 -138 -7 l-133 0 -5 118 c-4 103 -8 121 -24 133 -16 11 -79
14 -332 14 -282 0 -314 -2 -333 -17 -19 -16 -21 -30 -23 -133 l-3 -115 -27 1
c-16 1 -34 2 -40 3 -10 1 -13 97 -13 447 0 422 -1 446 -18 459 -29 21 -633 20
-664 -1 l-23 -14 0 -448 0 -447 -134 0 c-74 0 -138 3 -142 8 -4 4 16 7 44 7
90 0 82 -45 82 470 l0 457 28 -1 c55 -3 166 35 233 80 37 24 69 44 71 44 2 0
22 -16 43 -36 72 -66 157 -94 260 -87 84 5 186 53 239 112 12 13 23 18 30 13
6 -5 35 -28 64 -50z"/>
<path d="M2553 3089 c-28 -10 -25 17 -27 -318 -1 -242 1 -277 16 -295 16 -20
26 -21 402 -21 356 0 387 1 403 18 16 16 18 43 19 300 1 265 -1 283 -19 304
-19 21 -21 22 -396 21 -207 0 -386 -4 -398 -9z m758 -46 c1 -5 2 -126 3 -270
1 -170 -2 -263 -9 -264 -34 -4 -725 -3 -726 1 -4 15 -5 517 -1 528 3 9 86 12
368 12 200 0 365 -3 365 -7z"/>
<path d="M2640 3030 l-45 -5 -3 -247 c-2 -228 -1 -247 15 -252 23 -6 652 -6
676 1 16 4 17 24 17 249 0 206 -2 246 -15 250 -18 7 -585 11 -645 4z"/>
<path d="M1918 3032 c-41 -3 -48 -6 -49 -25 -5 -77 -3 -861 2 -868 5 -9 557
-14 566 -6 9 10 6 878 -4 888 -10 10 -403 18 -515 11z m452 -51 l25 -1 0 -400
c0 -220 -2 -401 -5 -401 -3 -1 -108 -2 -233 -3 -146 -1 -231 2 -235 9 -4 5 -7
186 -7 400 l0 390 24 5 c20 4 313 5 431 1z"/>
<path d="M2659 2343 c-2 -78 0 -206 5 -210 6 -6 556 -6 562 0 3 2 6 56 6 118
l2 114 -287 3 -287 2 -1 -27z m526 -93 l0 -75 -237 0 c-154 0 -239 3 -239 10
-5 34 -3 131 3 135 3 3 111 5 240 5 l233 0 0 -75z"/>
<path d="M1447 1962 c-13 -3 -15 -9 -10 -30 10 -34 10 -98 1 -141 -8 -31 -7
-33 17 -29 15 3 26 0 30 -10 3 -9 14 -13 30 -10 13 3 22 1 19 -3 -3 -5 0 -9 7
-9 6 0 0 -12 -14 -26 -42 -42 -50 -83 -50 -273 l-1 -176 24 -4 c14 -1 28 -8
31 -13 4 -6 44 -12 90 -15 l84 -6 1 176 c0 153 3 179 19 203 l19 29 6 -26 c4
-14 8 -88 8 -165 1 -199 -1 -184 26 -184 13 0 26 -5 28 -11 2 -6 41 -13 90
-16 l86 -6 -2 189 c-4 235 -14 266 -100 305 -26 11 -40 24 -41 38 -2 25 19 27
61 7 16 -8 51 -17 78 -21 l49 -7 -9 39 c-10 47 -10 76 0 129 8 41 8 42 -18 37
-14 -3 -26 -1 -26 4 0 5 -10 9 -22 8 -13 -1 -28 4 -35 10 -17 18 -60 6 -83
-22 -17 -22 -27 -24 -107 -27 -49 -1 -101 3 -118 9 -74 29 -151 51 -168 47z"/>
<path d="M3279 1891 c-1 -3 -2 -35 -3 -69 -1 -63 -2 -64 -36 -78 -91 -38 -102
-72 -104 -306 l-2 -188 27 0 c15 0 29 -5 31 -11 2 -7 35 -12 88 -13 l84 -1 0
177 c1 170 2 178 24 200 26 27 23 46 27 -177 1 -88 3 -163 4 -167 0 -5 12 -8
25 -8 13 0 26 -5 28 -11 2 -6 40 -13 89 -16 l85 -6 -1 97 c-1 94 0 97 19 91
50 -15 93 -25 115 -25 22 0 23 3 15 38 -10 47 -10 67 0 118 l7 42 -50 7 c-28
4 -51 11 -51 17 0 5 -14 8 -30 6 -27 -2 -34 2 -53 36 -14 25 -38 48 -67 63
l-45 24 0 67 c-1 64 -2 67 -25 69 -49 4 -72 10 -78 19 -7 10 -121 14 -123 5z"/>
<path d="M2268 1845 c-91 -23 -144 -87 -152 -185 -8 -104 31 -159 138 -195
l64 -22 -33 -74 c-50 -114 -51 -119 -22 -119 14 0 27 -5 29 -11 2 -6 40 -13
89 -16 l85 -6 62 146 c34 80 62 153 62 161 0 19 17 21 22 4 7 -19 258 -22 306
-3 61 25 87 67 87 145 0 93 -35 133 -135 155 -19 4 -41 12 -48 18 -19 15 -496
17 -554 2z m96 -212 c-2 -54 -3 -55 -15 -48 -6 4 -8 23 -5 44 3 20 5 40 6 44
0 5 3 6 8 4 4 -3 6 -22 6 -44z"/>
<path d="M3181 1092 c-6 -2 -11 -32 -11 -70 0 -88 21 -130 80 -160 29 -14 45
-29 46 -42 1 -21 2 -21 -106 -24 l-55 -1 -12 -50 c-7 -27 -15 -60 -18 -72 -4
-19 -1 -23 19 -23 13 0 26 -5 28 -11 4 -12 106 -17 129 -6 14 7 16 -3 17 -85
0 -144 -1 -138 26 -138 13 0 26 -5 28 -11 2 -6 40 -13 89 -16 l85 -6 -1 138
c0 75 3 139 8 142 4 2 21 -3 39 -11 17 -9 55 -19 84 -22 l52 -6 -15 68 c-9 38
-18 72 -22 76 -3 4 -26 9 -50 12 -24 2 -47 10 -51 17 -5 6 -15 9 -24 6 -17 -7
-17 -6 -20 63 -1 39 -4 45 -23 46 -13 1 -24 2 -25 3 -2 2 -14 4 -27 7 -37 7
-58 38 -60 90 -2 56 -2 56 -41 61 -45 4 -54 7 -62 18 -6 9 -86 14 -107 7z"/>
<path d="M1686 1008 c-92 -19 -154 -92 -160 -189 -8 -124 50 -182 214 -213
128 -25 278 35 265 105 -4 20 5 25 21 11 5 -5 28 -15 52 -22 24 -7 45 -16 47
-19 2 -4 -21 -62 -51 -130 -30 -68 -54 -128 -54 -132 0 -5 11 -9 24 -9 13 0
26 -5 28 -11 2 -6 40 -13 88 -16 98 -6 82 -20 145 126 101 235 127 306 127
347 0 54 -24 99 -59 111 -121 44 -143 47 -398 48 -137 0 -268 -3 -289 -7z m88
-205 c-1 -21 -3 -44 -3 -51 -1 -7 -5 -11 -9 -8 -5 3 -8 18 -6 33 1 15 2 36 3
46 1 9 5 17 9 17 4 0 7 -17 6 -37z"/>
<path d="M2727 1004 c-132 -34 -186 -126 -192 -329 -5 -126 8 -175 53 -216 33
-29 130 -64 207 -75 28 -3 73 -16 100 -29 28 -12 74 -26 103 -29 l54 -6 -9 32
c-8 36 -10 96 -3 143 4 26 2 30 -17 27 -12 -2 -24 2 -28 8 -3 5 -18 7 -32 4
-18 -5 -24 -3 -19 5 5 7 -4 11 -29 11 -26 0 -43 -8 -63 -27 -26 -26 -56 -31
-76 -13 -13 13 -14 199 -1 255 14 63 29 91 59 110 21 14 27 14 72 -6 27 -11
67 -23 89 -26 21 -2 43 -7 47 -9 11 -7 10 23 -1 66 -5 19 -12 48 -15 64 -6 23
-11 27 -31 23 -14 -2 -25 0 -25 5 0 5 -8 8 -17 6 -10 -1 -25 2 -33 7 -22 14
-137 13 -193 -1z"/>
</g>
</svg>
